<?xml version="1.0" standalone="no"?>
<!DOCTYPE svg PUBLIC "-//W3C//DTD SVG 20010904//EN"
 "http://www.w3.org/TR/2001/REC-SVG-20010904/DTD/svg10.dtd">
<svg version="1.0" xmlns="http://www.w3.org/2000/svg"
 width="600.000000pt" height="600.000000pt" viewBox="0 0 600.000000 600.000000"
 preserveAspectRatio="xMidYMid meet">

<g transform="translate(0.000000,600.000000) scale(0.100000,-0.100000)"
fill="#000000" stroke="none">
<path d="M3077 4344 c-190 -34 -324 -100 -438 -213 -140 -140 -163 -222 -162
-568 1 -128 -2 -233 -6 -233 -4 0 -5 15 -3 34 6 54 -21 65 -170 73 -144 7
-182 2 -232 -32 l-35 -24 -248 24 c-136 14 -273 25 -303 25 -220 0 -314 -347
-141 -521 59 -60 107 -75 200 -60 36 6 147 20 246 31 99 11 190 23 202 25 20
5 24 0 29 -33 3 -21 16 -58 28 -82 21 -42 21 -48 9 -124 -31 -197 -53 -361
-53 -404 0 -42 7 -55 65 -132 246 -321 542 -512 919 -592 139 -29 382 -29 546
0 244 44 482 145 644 276 26 21 15 69 -32 142 -113 174 -360 308 -612 332
l-75 7 -3 51 -3 52 73 22 c102 30 188 81 269 157 69 65 143 171 174 248 l16
41 63 -4 c84 -5 158 18 190 61 50 66 56 166 14 235 -11 17 -20 32 -21 32 -1 0
-20 6 -41 14 l-40 14 0 288 c-1 246 -4 300 -20 364 -34 137 -87 220 -151 236
-13 3 -29 18 -35 35 -26 61 -122 130 -240 171 -137 47 -450 63 -623 32z m792
-474 c31 -72 51 -224 51 -388 0 -197 13 -238 92 -295 17 -11 17 -18 3 -102
-35 -219 -113 -375 -249 -503 -129 -120 -289 -175 -511 -174 -298 1 -492 111
-608 346 -38 77 -81 213 -69 220 4 2 50 7 102 11 52 4 107 14 121 21 24 12 59
67 59 93 0 6 8 11 17 11 28 0 53 31 53 66 0 35 -21 54 -59 54 -11 0 -22 9 -26
20 -13 40 -50 57 -145 64 l-90 8 0 186 c0 103 5 204 10 224 21 74 84 124 191
152 49 12 56 11 123 -15 265 -103 636 -90 865 30 20 10 39 19 42 20 4 0 16
-21 28 -49z m-2308 -476 c41 -21 97 -91 115 -146 11 -34 15 -74 13 -127 -11
-225 -201 -337 -338 -200 -106 106 -110 313 -8 424 65 71 141 88 218 49z m689
11 c37 -19 38 -37 4 -55 -21 -12 -31 -12 -57 -1 -18 7 -43 15 -57 18 -80 14
-79 13 -40 33 43 23 111 25 150 5z m104 -4 c28 -31 17 -55 -27 -59 -36 -3 -37
-2 -31 23 4 15 1 31 -6 40 -20 24 43 20 64 -4z m86 -6 c7 -8 10 -25 6 -40 -5
-19 -13 -25 -34 -25 -25 0 -27 3 -27 40 0 34 3 40 21 40 12 0 27 -7 34 -15z
m-765 -13 c40 -25 81 -103 95 -182 18 -106 -21 -247 -83 -298 -8 -7 -32 -16
-52 -19 l-36 -6 31 34 c53 58 74 114 78 209 5 102 -20 180 -75 241 -34 38 -35
39 -12 39 13 0 38 -8 54 -18z m264 -17 c111 -10 150 -18 170 -33 68 -50 103
-154 82 -245 -15 -66 -42 -112 -79 -131 -26 -13 -145 -32 -332 -52 -63 -6 -65
-6 -48 13 45 49 63 114 63 223 0 113 -19 176 -68 228 l-22 24 45 -6 c25 -4
110 -13 189 -21z m256 -48 c35 -35 65 -115 65 -172 0 -78 -61 -195 -101 -195
-8 0 -4 9 9 23 70 75 69 249 -4 344 -32 43 -12 43 31 0z m225 -12 c286 -13
318 -16 338 -39 49 -53 52 -172 7 -224 -22 -25 -32 -28 -142 -38 -103 -9 -119
-8 -128 5 -5 9 -24 30 -41 48 -25 26 -40 33 -70 33 -68 0 -133 -56 -119 -100
5 -16 2 -20 -15 -20 l-20 0 22 43 c32 60 33 202 2 265 l-22 42 32 -4 c17 -3
87 -8 156 -11z m404 -63 c23 -47 27 -95 11 -149 -8 -28 -22 -56 -30 -63 -19
-16 -19 -11 0 33 8 20 15 59 15 87 0 28 -7 67 -15 87 -8 19 -15 37 -15 40 0
11 22 -11 34 -35z m1381 -68 c32 -21 49 -68 48 -131 -2 -63 -26 -110 -70 -136
-35 -20 -127 -33 -166 -23 l-24 6 18 67 c10 37 24 70 31 75 26 17 62 21 90 10
16 -6 30 -6 34 -1 6 10 -37 29 -66 29 -10 0 -30 -4 -44 -10 -24 -9 -26 -8 -22
13 3 12 8 43 11 69 5 41 9 47 33 51 41 7 101 -2 127 -19z m-1780 -126 c31 -24
64 -90 65 -128 0 -37 -43 -121 -79 -155 -32 -29 -35 -30 -134 -30 -56 0 -123
7 -149 14 -40 11 -50 20 -68 55 -11 23 -20 56 -20 74 0 29 2 31 48 38 26 3 72
13 102 20 30 8 69 14 88 14 l33 0 -26 -35 c-15 -19 -25 -42 -23 -52 2 -13 8
-9 25 19 12 20 38 47 57 60 20 13 36 26 36 31 0 4 -20 7 -45 7 -37 0 -45 3
-45 18 0 10 10 28 23 39 42 38 73 42 112 11z m134 -115 c15 -52 15 -53 -18
-53 -27 0 -29 3 -33 45 -3 41 -1 45 19 45 17 0 24 -9 32 -37z m54 -155 c93
-206 242 -330 450 -375 l77 -16 0 -49 c0 -48 0 -48 -34 -48 -52 0 -174 -25
-260 -54 -156 -53 -306 -143 -438 -266 l-68 -62 0 42 c0 51 37 574 49 688 8
74 12 86 44 121 20 22 43 54 52 70 13 26 21 31 53 31 38 0 38 0 75 -82z m-430
-59 c40 -6 98 -9 131 -6 l58 5 -5 -76 c-32 -496 -53 -742 -64 -742 -20 0 -222
231 -273 312 -19 31 -15 70 30 376 19 123 26 152 38 147 8 -3 46 -10 85 -16z
m1230 -462 c-54 -60 -169 -62 -230 -5 -19 17 -23 32 -23 77 l0 56 77 -3 c43
-2 103 1 133 5 l55 8 3 -58 c2 -46 -1 -64 -15 -80z m-287 -24 c-12 -85 -18
-173 -11 -173 5 0 41 25 82 55 40 31 79 58 86 61 8 2 48 -22 90 -56 42 -33 81
-60 86 -60 6 0 8 40 4 105 l-6 105 49 0 c181 -1 422 -107 550 -243 60 -63 114
-149 114 -180 0 -17 -121 -103 -207 -146 l-63 -31 0 104 c0 147 -19 147 -22 0
l-3 -116 -80 -30 c-117 -43 -272 -76 -423 -90 -230 -20 -454 16 -674 109
l-108 45 0 109 c0 66 -4 109 -10 109 -6 0 -10 -40 -10 -101 l0 -100 -47 26
c-62 33 -183 122 -183 134 0 18 165 163 247 217 151 101 361 176 511 183 33 1
34 1 28 -36z m103 -33 c35 0 29 -13 -22 -53 -29 -22 -58 -45 -65 -51 -12 -8
-13 0 -7 49 3 33 8 70 11 83 l5 23 30 -25 c17 -14 38 -26 48 -26z m217 -107
c-1 -2 -30 19 -64 45 l-62 47 27 9 c16 5 42 19 58 31 l30 23 7 -77 c3 -42 5
-77 4 -78z"/>
<path d="M2750 3455 c-47 -15 -109 -59 -99 -70 4 -3 23 5 44 19 69 47 152 58
240 31 48 -14 68 -13 49 4 -15 13 -99 31 -146 30 -24 0 -63 -7 -88 -14z"/>
<path d="M3525 3463 c-49 -11 -85 -25 -80 -32 2 -5 28 -2 57 6 81 22 168 12
229 -25 54 -35 69 -20 15 15 -57 37 -150 52 -221 36z"/>
<path d="M3427 3212 c-23 -25 -21 -58 3 -82 39 -39 100 -14 100 43 0 52 -68
78 -103 39z"/>
<path d="M2974 2839 c-7 -12 59 -28 168 -40 98 -12 209 -3 272 20 47 19 27 28
-26 13 -68 -19 -261 -19 -346 0 -35 8 -65 11 -68 7z"/>
<path d="M1444 3390 c-180 -41 -209 -388 -41 -490 41 -25 113 -26 150 -2 104
69 139 251 73 385 -40 83 -109 124 -182 107z m36 -39 c0 -5 -14 -14 -31 -21
-41 -17 -76 -73 -89 -139 -11 -57 -16 -68 -26 -58 -11 11 15 117 37 154 30 48
109 94 109 64z"/>
<path d="M3252 2028 c-7 -7 -12 -19 -12 -28 0 -40 61 -55 80 -21 13 25 13 27
-6 45 -18 19 -45 21 -62 4z m52 -23 c3 -9 -1 -18 -10 -22 -19 -7 -39 11 -30
26 10 16 33 13 40 -4z"/>
<path d="M3256 1755 c-20 -21 -20 -39 0 -59 20 -21 30 -20 55 5 18 18 19 23 6
42 -18 28 -40 32 -61 12z m43 -19 c9 -10 8 -16 -4 -26 -19 -16 -41 1 -32 24 8
20 21 20 36 2z"/>
<path d="M4232 3694 c-17 -33 -42 -148 -42 -193 0 -67 51 -107 101 -81 28 16
26 107 -6 200 -29 86 -39 100 -53 74z m53 -151 c21 -100 -5 -143 -56 -92 -19
19 -21 29 -16 83 3 33 11 76 18 95 l12 34 14 -27 c8 -15 20 -57 28 -93z"/>
<path d="M4360 3288 c-12 -36 -24 -100 -27 -148 -5 -77 -3 -88 17 -112 17 -22
30 -28 60 -28 48 0 60 18 60 87 0 73 -58 263 -80 263 -5 0 -18 -28 -30 -62z
m65 -69 c30 -96 34 -184 8 -197 -21 -11 -41 -6 -65 16 -13 11 -18 30 -18 74 0
63 27 188 41 188 4 0 20 -36 34 -81z"/>
</g>
</svg>
